# xmcd
#
# Track frame offsets:
#	150
#	15965
#	33100
#
# Disc length: 653 seconds
#
# Revision: 0
# Processed by: cddbd v1.5.2PL0 Copyright (c) Steve Scherf et al.
# Submitted via: audiograbber 1.83.01
#
DISCID=10028b03
DTITLE=Mika Sundqvist - Moottoripyörä On Moottoripyörä [CDM)
DYEAR=1996
DGENRE=Pop
TTITLE0=Moottoripyörä On Moottoripyörä (Radiomix)
TTITLE1=Moottoripyörä On Moottoripyörä (Heavymix)
TTITLE2=Sun Sisällä On Pieni Litmanen
EXTD=TR.
EXTT0=
EXTT1=
EXTT2=
PLAYORDER=
